<?xml version="1.0" encoding="iso-8859-1"?>
<!-- Generator: Adobe Illustrator 19.0.0, SVG Export Plug-In . SVG Version: 6.00 Build 0)  -->
<svg xmlns="http://www.w3.org/2000/svg" xmlns:xlink="http://www.w3.org/1999/xlink" version="1.1" id="Capa_1" x="0px" y="0px" viewBox="0 0 512 512" style="enable-background:new 0 0 512 512;" xml:space="preserve" width="512" height="512">
<g>
	<circle style="fill:#ECEAEC;" cx="256" cy="248.455" r="176"/>
	<path style="fill:#ECEAEC;" d="M256,472.455c-123.516,0-224-100.484-224-224s100.484-224,224-224s224,100.484,224,224   S379.516,472.455,256,472.455z M256,40.455c-114.695,0-208,93.305-208,208s93.305,208,208,208s208-93.305,208-208   S370.695,40.455,256,40.455z"/>
	<path style="fill:#DBEAFF;" d="M256,24.455c-123.516,0-224,100.484-224,224c0,11.364,0.897,22.518,2.553,33.426   c0.577,3.8,3.923,6.574,7.766,6.574h0.293c4.851,0,8.425-4.354,7.704-9.151c-3.718-24.719-3.139-50.823,3.049-77.664   c20.188-87.576,95.998-153.324,185.584-160.5C361.302,31.338,464,128.124,464,248.455c0,10.489-0.802,20.792-2.318,30.866   c-0.721,4.792,2.846,9.134,7.692,9.134h0.307c3.843,0,7.189-2.774,7.766-6.574c1.657-10.909,2.553-22.062,2.553-33.426   C480,124.939,379.516,24.455,256,24.455z"/>
	<path style="fill:#C3DDFF;" d="M256,24.455c-87.704,0-163.779,50.674-200.528,124.273c-2.685,5.378,1.144,11.727,7.155,11.727h0   c3.042,0,5.771-1.751,7.128-4.473C103.855,87.574,174.51,40.455,256,40.455s152.145,47.119,186.245,115.527   c1.357,2.722,4.086,4.473,7.128,4.473h0c6.011,0,9.84-6.349,7.155-11.727C419.78,75.128,343.704,24.455,256,24.455z"/>
	<path style="fill:#A4CCFF;" d="M256,24.455c-42.872,0-82.954,12.122-117.029,33.102c-6.885,4.239-3.847,14.898,4.238,14.898h0   c1.453,0,2.866-0.412,4.103-1.174C178.963,51.777,216.166,40.455,256,40.455s77.037,11.322,108.688,30.826   c1.237,0.762,2.65,1.174,4.103,1.174h0c8.085,0,11.122-10.659,4.238-14.898C338.954,36.576,298.872,24.455,256,24.455z"/>
	<path style="fill:#739AD6;" d="M280,248.455c-2.469,0-4.859-1.148-6.398-3.203L240,200.455v40c0,4.422-3.578,8-8,8s-8-3.578-8-8   v-64c0-3.445,2.203-6.5,5.469-7.586c3.289-1.102,6.867,0.039,8.93,2.789L272,216.455v-40c0-4.422,3.578-8,8-8s8,3.578,8,8v64   c0,3.445-2.203,6.5-5.469,7.586C281.695,248.322,280.844,248.455,280,248.455z"/>
	<path style="fill:#A4CCFF;" d="M56,256.455H8c-4.422,0-8-3.578-8-8s3.578-8,8-8h48c4.422,0,8,3.578,8,8S60.422,256.455,56,256.455z   "/>
	<path style="fill:#A4CCFF;" d="M504,256.455h-48c-4.422,0-8-3.578-8-8s3.578-8,8-8h48c4.422,0,8,3.578,8,8   S508.422,256.455,504,256.455z"/>
	<path style="fill:#C3DDFF;" d="M256,504.455c-4.422,0-8-3.578-8-8v-48c0-4.422,3.578-8,8-8c4.422,0,8,3.578,8,8v48   C264,500.876,260.422,504.455,256,504.455z"/>
	<path style="fill:#A4CCFF;" d="M256,128.455l60.193,26.752c4.14,1.84,8.364-2.404,6.505-6.535L260.5,10.456   c-1.746-3.88-7.255-3.88-9.001,0l-62.197,138.216c-1.859,4.131,2.365,8.375,6.505,6.535L256,128.455z"/>
	<path style="fill:#8BB3EA;" d="M256,7.545c-1.814,0-3.627,0.97-4.5,2.91l-62.197,138.216c-1.859,4.131,2.365,8.375,6.505,6.535   L256,128.455V7.545z"/>
</g>















</svg>
